<svg xmlns="http://www.w3.org/2000/svg" viewBox="0 0 256 256" width="256" height="256">
  <path d="M128 70 L228 118 L128 166 L28 118 Z" fill="#E8D5B5" stroke="#D4B896" stroke-width="4" stroke-linejoin="round" stroke-linecap="round"/>
  <path d="M40 120c22 8 40 18 70 20 34 2 64-8 92-14l5 5c-30 9-62 18-98 16-34-2-56-14-75-22-1.5-.6-1.8-3 .8-4.2 2.2-1 4.2-1.1 5.4-.8z" fill="#D4B896" opacity="0.16"/>
  <g fill="none" stroke="#B89C75" stroke-linecap="round" stroke-width="1.3" opacity="0.38">
    <path d="M85 112c6 3 10 6 15 5"/>
    <path d="M102 118c-3 4-2 6 1 9"/>
    <path d="M125 124c6 2 11 5 17 4"/>
    <path d="M148 116c3 4 6 7 10 8"/>
    <path d="M78 128c5 3 10 4 15 3"/>
    <path d="M105 134c3 3 2 6 0 9"/>
    <path d="M135 138c5 1 9 3 13 6"/>
    <path d="M162 130c2 3 4 5 7 6"/>
    <path d="M112 150c4 2 8 4 12 3"/>
  </g>
  <g opacity="0.14" fill="#7A6247">
    <g transform="translate(180 102) rotate(-22) scale(0.92)">
      <ellipse cx="0" cy="-9" rx="2.2" ry="8.5"/>
      <ellipse cx="-5" cy="-6.5" rx="2" ry="7" transform="rotate(-25 -5 -6.5)"/>
      <ellipse cx="5" cy="-6.5" rx="2" ry="7" transform="rotate(25 5 -6.5)"/>
      <ellipse cx="-8.5" cy="-2.5" rx="1.8" ry="6" transform="rotate(-45 -8.5 -2.5)"/>
      <ellipse cx="8.5" cy="-2.5" rx="1.8" ry="6" transform="rotate(45 8.5 -2.5)"/>
    </g>
    <g transform="translate(200 113) rotate(12) scale(0.78)">
      <ellipse cx="0" cy="-9" rx="2.2" ry="8.5"/>
      <ellipse cx="-5" cy="-6.5" rx="2" ry="7" transform="rotate(-25 -5 -6.5)"/>
      <ellipse cx="5" cy="-6.5" rx="2" ry="7" transform="rotate(25 5 -6.5)"/>
      <ellipse cx="-8" cy="-2" rx="1.7" ry="5.5" transform="rotate(-42 -8 -2)"/>
      <ellipse cx="8" cy="-2" rx="1.7" ry="5.5" transform="rotate(42 8 -2)"/>
    </g>
  </g>
  <g fill="#D4B896" opacity="0.1">
    <circle cx="100" cy="108" r="1.1"/>
    <circle cx="142" cy="124" r="0.9"/>
    <circle cx="115" cy="142" r="1"/>
    <circle cx="158" cy="134" r="0.8"/>
    <circle cx="88" cy="126" r="0.7"/>
  </g>
</svg>